<svg id="Capa_1" enable-background="new 0 0 512 512" height="512" viewBox="0 0 512 512" width="512" xmlns="http://www.w3.org/2000/svg"><g><path d="m512 77.5v434.5h-66l-190-28.5-190 28.5h-66v-383.67l20-71.33h472z" fill="#f0f9ff"/><path d="m512 77.5v434.5h-66l-190-28.5v-426.5h236z" fill="#bce4f4"/><path d="m512 0v77.5h-218l-38 50.83h-256v-128.33z" fill="#393d9d"/><path d="m48.75 47.5h30v30h-30z" fill="#fe4945"/><path d="m110.292 47.5h30v30h-30z" fill="#f0f9ff"/><path d="m171.833 47.5h30v30h-30z" fill="#f0f9ff"/><path d="m512 0v77.5h-218l-38 50.83v-128.33z" fill="#350d65"/><path d="m446 453.9v58.1h-380v-58.1l40.49-7.95c3.04-10.18 7.12-20 12.19-29.37l-23.03-34.27 52-51.99 34.27 23.02c9.36-5.07 19.19-9.15 29.37-12.18l7.94-40.5h73.54l7.94 40.5c10.18 3.03 20.01 7.11 29.37 12.18l34.27-23.02 52 51.99-23.03 34.27c5.07 9.37 9.15 19.19 12.19 29.37z" fill="#ffcf67"/><path d="m446 453.9v58.1h-190v-211.34h36.77l7.94 40.5c10.18 3.03 20.01 7.11 29.37 12.18l34.27-23.02 52 51.99-23.03 34.27c5.07 9.37 9.15 19.19 12.19 29.37z" fill="#feb921"/><path d="m341.57 490.66c0 7.26-.9 14.4-2.7 21.34h-165.74c-1.8-6.94-2.7-14.08-2.7-21.34 0-47.18 38.39-85.57 85.57-85.57s85.57 38.39 85.57 85.57z" fill="#ffb721"/><path d="m341.57 490.66c0 7.26-.9 14.4-2.7 21.34h-82.87v-106.91c47.18 0 85.57 38.39 85.57 85.57z" fill="#fe9b2a"/></g></svg>